<svg width="19" height="24" viewBox="0 0 19 24" fill="none" xmlns="http://www.w3.org/2000/svg">
<g clip-path="url(#clip0_2_100)">
<path d="M12.2822 0.757233L12.6303 5.39826L13.5611 6.69722L19.0002 6.99619L12.2822 0.757233Z" fill="#63C5BA"/>
<path d="M18.3517 7.27005C17.4886 7.26732 16.6276 7.19913 15.7645 7.1964C14.4834 7.19203 13.2776 6.50518 12.63 5.3988C12.3015 4.83251 12.1362 4.22204 12.1346 3.56683C12.1357 3.13912 12.2072 2.72995 12.3479 2.33988C12.3452 1.81287 12.2863 1.28587 12.2825 0.757774C12.2814 0.582651 12.2939 0.411347 12.319 0.243317H3.34333C1.77964 0.243317 0.512207 1.51064 0.512207 3.07419V20.8074C0.512207 22.371 1.77964 23.6383 3.34333 23.6383H15.8709C17.4346 23.6383 18.702 22.371 18.702 20.8074V7.25259C18.5847 7.26459 18.4679 7.27114 18.3517 7.27059V7.27005Z" fill="#12A9E0"/>
<path d="M19.0003 6.99618C19.0014 6.70431 18.9075 6.47572 18.7068 6.26568C16.8566 4.33061 15.0125 2.38953 13.1618 0.454446C13.0019 0.286961 12.8094 0.150573 12.632 0H2.77248C2.73102 0.0169122 2.69064 0.0409165 2.64699 0.0490998C1.04074 0.351882 0.0041024 1.57283 0.0030112 3.19367C-0.00080801 9.07419 -0.00135361 14.9542 0.0090128 20.8347C0.0095584 21.1909 0.0695745 21.5625 0.181423 21.9007C0.614084 23.21 1.78767 23.9973 3.26298 23.9984C4.6368 24 8.56785 24.0005 11.9855 23.9995V22.8336C8.60441 22.8331 4.57515 22.8325 3.2657 22.8369C2.40802 22.8396 1.73638 22.5166 1.3681 21.7283C1.22788 21.4277 1.15968 21.0655 1.15914 20.731C1.14714 14.9143 1.14877 9.09765 1.15205 3.28151C1.15259 2.23841 1.68674 1.497 2.61589 1.24059C2.83086 1.18112 3.06274 1.1593 3.28753 1.1593C6.06518 1.15385 8.84229 1.1593 11.6199 1.15057C11.8627 1.15003 11.9255 1.21931 11.9228 1.45717C11.9107 2.5641 11.908 3.67158 11.9206 4.7785C11.9342 6.02509 12.6637 6.97436 13.8564 7.29023C14.1324 7.36334 14.4303 7.37425 14.719 7.37752C15.6536 7.38789 16.5887 7.38843 17.5233 7.37698C17.7623 7.37425 17.8551 7.4288 17.8529 7.69122C17.8398 9.00709 17.8469 19.0513 17.8463 20.3672C17.8463 20.3977 17.8452 20.4283 17.8431 20.461C18.2348 20.4708 18.62 20.5063 18.9976 20.5668V20.4621C18.9976 18.8833 18.9937 8.57501 19.0008 6.99618H19.0003ZM16.7726 6.2144C16.0289 6.21604 15.2858 6.2204 14.5422 6.21386C13.649 6.20567 13.0718 5.61866 13.0691 4.72286C13.0663 3.85543 13.0691 2.988 13.0691 2.12057C13.0898 2.11184 13.1111 2.10366 13.1318 2.09493C14.4161 3.44626 15.701 4.79705 17.0192 6.18385C16.9052 6.19858 16.8392 6.21386 16.7726 6.2144Z" fill="black"/>
<path d="M7.62268 13.4539C6.67061 13.4539 5.71908 13.4539 4.76701 13.4539C4.5013 13.4539 4.28197 13.3574 4.17176 13.1053C4.07791 12.8909 4.08392 12.6438 4.2716 12.5057C4.43146 12.3879 4.66171 12.3104 4.8614 12.3088C6.67443 12.2941 8.48801 12.3001 10.301 12.3001C10.3643 12.3001 10.4282 12.299 10.4915 12.3006C10.8881 12.3104 11.1522 12.5357 11.1571 12.8674C11.162 13.2111 10.8914 13.4512 10.4789 13.4528C9.52683 13.4566 8.5753 13.4539 7.62323 13.4539H7.62268Z" fill="white"/>
<path d="M7.62268 16.431C6.67061 16.431 5.71908 16.431 4.76701 16.431C4.5013 16.431 4.28197 16.3344 4.17176 16.0824C4.07791 15.868 4.08392 15.6208 4.2716 15.4828C4.43146 15.365 4.66171 15.2875 4.8614 15.2859C6.67443 15.2711 11.7616 15.2771 13.5746 15.2771C13.6379 15.2771 13.7018 15.2761 13.7651 15.2777C14.1617 15.2875 14.4258 15.5128 14.4307 15.8445C14.4356 16.1882 14.165 16.4283 13.7525 16.4299C12.8004 16.4337 8.5753 16.431 7.62323 16.431H7.62268Z" fill="white"/>
<path d="M7.62268 19.4075C6.67061 19.4075 5.71908 19.4075 4.76701 19.4075C4.5013 19.4075 4.28197 19.311 4.17176 19.0589C4.07791 18.8445 4.08392 18.5974 4.2716 18.4594C4.43146 18.3415 4.66171 18.264 4.8614 18.2624C6.67443 18.2477 8.48801 18.2537 10.301 18.2537C10.3643 18.2537 10.4282 18.2526 10.4915 18.2542C10.8881 18.264 11.1522 18.4894 11.1571 18.8211C11.162 19.1648 10.8914 19.4048 10.4789 19.4064C9.52683 19.4103 8.5753 19.4075 7.62323 19.4075H7.62268Z" fill="white"/>
<path d="M17.847 16.9302C17.8454 18.1969 17.8438 19.4643 17.841 20.731C17.8405 21.0655 17.7728 21.4277 17.6321 21.7283C17.2643 22.5166 16.5921 22.8396 15.7345 22.8369C14.927 22.8342 13.0839 22.8331 10.9976 22.8331V23.9995C13.0698 23.9995 14.8899 23.9989 15.7372 23.9978C17.213 23.9962 18.3866 23.2095 18.8187 21.9002C18.9306 21.5619 18.9906 21.1904 18.9912 20.8342C18.9933 19.5325 18.995 18.2313 18.9961 16.9296H17.8465L17.847 16.9302Z" fill="black"/>
</g>
<defs>
<clipPath id="clip0_2_100">
<rect width="19" height="24" fill="white"/>
</clipPath>
</defs>
</svg>
